# xmcd
#
# Track frame offsets:
# 150
# 18802
# 33162
# 52126
# 66571
# 86805
# 106733
# 125720
# 141589
# 157063
# 170169
#
# Disc length: 2478 seconds
#
# Revision: 1
# Processed by: cddbd v1.5.1PL2 Copyright (c) Steve Scherf et al.
# Submitted via: CedeCatalogueitor 2.6.0.6 http://personales.ya.com/cdcatalogueitor
#
DISCID=a309ac0b
DTITLE=Salseta Del Poble Sec - Cops Amagats
DYEAR=2002
DGENRE=
TTITLE0=La Ciutat
TTITLE1=Cops Amagats
TTITLE2=Porta'm Sempre Dins El Teu Cor
TTITLE3=Tota La Nit
TTITLE4=Al Final De L'escapada
TTITLE5=One And One
TTITLE6=Suisida
TTITLE7=No Se Per Què
TTITLE8=Malnom
TTITLE9=Cops Amagats 2
TTITLE10=Només Una Cançó De Bressol
EXTD=
EXTT0=
EXTT1=
EXTT2=
EXTT3=
EXTT4=
EXTT5=
EXTT6=
EXTT7=
EXTT8=
EXTT9=
EXTT10=
PLAYORDER=
